<svg width="1200" height="1480" viewBox="0 0 1200 1480" fill="none" xmlns="http://www.w3.org/2000/svg">
  <rect width="1200" height="1480" fill="#EAE0D4"/>
  <rect x="58" y="58" width="1084" height="1364" stroke="#1E1713" stroke-opacity="0.12"/>
  <rect x="128" y="128" width="944" height="1224" fill="url(#paint0_linear_200_2)"/>
  <ellipse cx="618" cy="666" rx="312" ry="412" fill="url(#paint1_radial_200_2)"/>
  <ellipse cx="638" cy="616" rx="170" ry="206" fill="#D8BDAA" fill-opacity="0.7"/>
  <path d="M394 1102C430.541 966.685 545.837 872 683 872C824.385 872 942.404 972.605 974 1112.5V1262H394V1102Z" fill="#2B2321"/>
  <path d="M491 535C491 434.484 572.484 353 673 353C773.516 353 855 434.484 855 535V596C855 696.516 773.516 778 673 778C572.484 778 491 696.516 491 596V535Z" fill="#E6CCB9"/>
  <path d="M504 501C504 420.366 569.366 355 650 355H694C780.709 355 851 425.291 851 512V545H504V501Z" fill="#2F2825"/>
  <path d="M493 542C493 452.53 565.53 380 655 380H682C775.889 380 852 456.111 852 550V606H493V542Z" fill="#3A312E"/>
  <rect x="182" y="188" width="182" height="182" rx="91" stroke="#F2E9E0" stroke-opacity="0.34"/>
  <text x="186" y="252" fill="#F7F1EA" fill-opacity="0.9" font-family="Arial, sans-serif" font-size="24" letter-spacing="7">SHANGHAI</text>
  <text x="186" y="292" fill="#F7F1EA" fill-opacity="0.7" font-family="Georgia, serif" font-size="54">Quiet Presence</text>
  <text x="190" y="1216" fill="#F7F1EA" fill-opacity="0.58" font-family="Arial, sans-serif" font-size="22" letter-spacing="8">DIGITAL TASTE / SUBTLE INTERACTIONS / SOFT SIGNALS</text>
  <defs>
    <linearGradient id="paint0_linear_200_2" x1="182" y1="188" x2="968" y2="1280" gradientUnits="userSpaceOnUse">
      <stop stop-color="#9E7D6B"/>
      <stop offset="0.42" stop-color="#6F5E59"/>
      <stop offset="1" stop-color="#2F2624"/>
    </linearGradient>
    <radialGradient id="paint1_radial_200_2" cx="0" cy="0" r="1" gradientUnits="userSpaceOnUse" gradientTransform="translate(618 666) rotate(90) scale(412 312)">
      <stop stop-color="#F1E0D0" stop-opacity="0.38"/>
      <stop offset="1" stop-color="#F1E0D0" stop-opacity="0"/>
    </radialGradient>
  </defs>
</svg>
